<svg width="125" height="26" viewBox="0 0 125 26" fill="none" xmlns="http://www.w3.org/2000/svg">
<path d="M18.0144 25.5991C15.191 25.5991 12.3391 25.5991 9.51568 25.5991C6.69229 25.5991 3.81187 25.5991 0.959961 25.5991V0.164062H9.0879V6.93867C10.5709 6.93867 12.0824 6.93867 13.5654 6.93867C15.0484 6.93867 16.5599 6.93867 18.0429 6.93867C19.2692 6.93867 20.0107 7.33184 20.0107 7.33184C20.2959 7.45281 20.5811 7.60403 20.8092 7.7855C21.0374 7.96696 21.2941 8.17867 21.4937 8.42062C21.893 8.90452 22.2067 9.50939 22.4348 10.205C22.4919 10.5377 22.5774 10.8704 22.6345 11.2635C22.6915 11.6567 22.72 12.0499 22.72 12.4733V20.1854C22.72 20.6391 22.6915 21.0625 22.6345 21.4254C22.5774 21.7884 22.4919 22.1513 22.3778 22.4537C22.2352 22.8469 22.0926 23.2098 21.893 23.5425C21.6933 23.8752 21.4937 24.1171 21.237 24.3288C21.0374 24.5708 20.7807 24.7523 20.524 24.9337C20.2674 25.1152 20.0107 25.2059 19.754 25.2966C19.754 25.2966 18.8699 25.5991 18.0144 25.5991ZM13.5939 10.5982H10.0575C9.91495 10.5982 9.80087 10.6284 9.6868 10.7191C9.57272 10.8099 9.45864 10.9006 9.37309 11.0216C9.23049 11.1426 9.14493 11.2635 9.0879 11.4148C9.03086 11.566 9.00234 11.7172 9.00234 11.8684V20.7903C9.00234 20.9415 9.03086 21.0625 9.11642 21.1835C9.20197 21.3045 9.25901 21.4254 9.34457 21.5162C9.45864 21.6371 9.57272 21.7279 9.6868 21.7884C9.80087 21.8489 9.94347 21.9396 10.0861 21.9396H13.6224C13.7365 21.9396 13.8506 21.9093 13.9647 21.8186C14.0787 21.7279 14.1928 21.6674 14.2784 21.5464C14.3639 21.4254 14.4495 21.3045 14.5065 21.1835C14.5636 21.0625 14.5921 20.9113 14.5921 20.7903V11.8382C14.5921 11.7172 14.5636 11.5962 14.5065 11.445C14.4495 11.2938 14.3924 11.1426 14.2784 11.0518C14.1643 10.9611 14.0787 10.8401 13.9647 10.7494C13.8506 10.6587 13.7365 10.5982 13.5939 10.5982Z" fill="black"/>
<path d="M25.2583 6.93896H32.6447V8.29994C32.7303 8.11847 32.8444 7.93701 32.9584 7.75555C33.0725 7.57408 33.2151 7.45311 33.3292 7.33213C33.4718 7.21116 33.6429 7.12043 33.7855 7.05994C33.9281 6.99945 34.0992 6.93896 34.2988 6.93896H42.1416C42.5123 6.93896 42.8546 6.99945 43.1398 7.15067C43.4249 7.30189 43.6531 7.48335 43.8242 7.69506C43.9668 7.84628 44.1094 8.02774 44.195 8.2092C44.2805 8.39067 44.3661 8.54189 44.4231 8.6931C44.4802 8.84432 44.5087 8.93506 44.5372 8.99554C44.5657 9.05603 44.5372 9.05603 44.5087 8.9653C44.5657 8.72335 44.6227 8.4814 44.6798 8.26969C44.7368 8.05799 44.8509 7.84628 44.965 7.66482C45.0791 7.42287 45.2216 7.2414 45.3928 7.12043C45.5639 6.99945 45.792 6.93896 46.0202 6.93896H52.4655C52.9218 6.93896 53.3496 6.99945 53.7203 7.09018C54.0911 7.18092 54.4048 7.33213 54.7185 7.54384C55.0322 7.75555 55.2604 7.96725 55.4885 8.2092C55.7167 8.45115 55.8878 8.75359 56.0589 9.05603C56.2015 9.32822 56.3156 9.60042 56.4011 9.90286C56.4867 10.2053 56.5722 10.5077 56.6293 10.8102C56.6863 11.2033 56.7433 11.5965 56.7719 11.9897C56.8004 12.3828 56.8289 12.7458 56.8289 13.1087V25.5691H49.4425V11.6268C49.4425 11.4755 49.4139 11.3243 49.3569 11.2033C49.2999 11.0824 49.2428 10.9916 49.1858 10.8707C49.1002 10.8102 49.0147 10.7497 48.9006 10.6892C48.7865 10.6287 48.701 10.6287 48.5869 10.6287H45.5068C45.3928 10.6287 45.3072 10.659 45.1931 10.7194C45.0791 10.7799 45.022 10.8404 44.965 10.9009C44.9079 10.9916 44.8509 11.1126 44.7939 11.2336C44.7368 11.3546 44.7368 11.4453 44.7368 11.5663V25.5691H37.3219V11.6872C37.3219 11.5663 37.2933 11.4453 37.2648 11.2941C37.2363 11.1429 37.1793 11.0219 37.1222 10.9311C37.0367 10.8102 36.9226 10.7194 36.8085 10.659C36.6944 10.5985 36.5233 10.538 36.3522 10.538H33.4148C33.3007 10.538 33.1866 10.5682 33.101 10.659C33.0155 10.7497 32.9299 10.8404 32.8444 10.9614C32.7588 11.0824 32.7303 11.2033 32.6733 11.3243C32.6162 11.4453 32.6162 11.5663 32.6162 11.6872V25.5691H25.2583V6.93896Z" fill="black"/>
<path d="M81.1273 13.3501V25.5383H73.969L73.4557 23.5422C73.4272 23.6934 73.3986 23.8144 73.3416 23.9051C73.2846 23.9959 73.2275 24.1169 73.199 24.2076C73.142 24.3588 73.0849 24.4798 72.9709 24.6008C72.8568 24.7217 72.7997 24.8125 72.7142 24.9032C72.4575 25.1149 72.2008 25.2964 71.9442 25.3871C71.659 25.4778 71.3453 25.5383 71.0316 25.5383H63.5881C63.1888 25.5383 62.8181 25.5081 62.5044 25.4173C62.1907 25.3266 61.8769 25.2359 61.6203 25.0847C61.3351 24.9334 61.0784 24.752 60.8788 24.5403C60.6791 24.3286 60.4795 24.0564 60.3369 23.7842C60.1658 23.4817 60.0232 23.1188 59.9091 22.7256C59.795 22.3325 59.738 21.9393 59.681 21.5764C59.6239 21.1832 59.5954 20.7598 59.5954 20.3666C59.5954 19.9735 59.5669 19.5803 59.5669 19.2174C59.5669 18.8847 59.5669 18.5218 59.5669 18.1588C59.5669 17.7959 59.5954 17.4027 59.6239 17.0096C59.6525 16.6164 59.738 16.2535 59.795 15.8905C59.8521 15.5276 59.9662 15.1949 60.1088 14.8925C60.2514 14.5598 60.451 14.2574 60.7077 13.9852C60.9643 13.713 61.221 13.5013 61.5632 13.3198C61.8199 13.1686 62.1336 13.0779 62.4758 12.9871C62.8181 12.8964 63.1888 12.8662 63.5881 12.8662H71.8871C72.0297 12.8662 72.2008 12.8057 72.3434 12.715C72.486 12.6242 72.6572 12.5032 72.7712 12.3218C72.8568 12.231 72.9423 12.1101 72.9994 11.9589C73.0564 11.8076 73.0849 11.6867 73.0849 11.5657C73.0849 11.4145 73.0564 11.2935 72.9709 11.1423C72.8853 10.9911 72.8283 10.8701 72.7142 10.7793C72.6001 10.6584 72.486 10.5676 72.3434 10.5072C72.2008 10.4467 72.0868 10.3862 71.9442 10.3862H60.9073V6.84766H76.2791C76.7354 6.84766 77.1346 6.8779 77.5054 6.96863C77.8761 7.05936 78.2184 7.18034 78.5321 7.33156C78.9028 7.48278 79.188 7.72473 79.4447 7.96668C79.7014 8.20863 79.9295 8.51106 80.1006 8.8135C80.2717 9.0857 80.4429 9.38813 80.5569 9.72082C80.671 10.0535 80.7851 10.3559 80.8421 10.6886C80.9562 11.1423 81.0132 11.5959 81.0703 12.0496C81.1273 12.5032 81.1273 12.9569 81.1273 13.3501ZM73.0564 16.5862H69.1208C68.9497 16.5862 68.7786 16.6466 68.6074 16.7374C68.4363 16.8281 68.2937 16.9491 68.1511 17.1003C68.0371 17.2515 67.9515 17.4027 67.8374 17.5842C67.7234 17.7657 67.6948 17.8866 67.6948 18.0681V20.7296C67.6948 20.8505 67.7234 20.9715 67.7804 21.0925C67.8374 21.2135 67.8945 21.3344 67.98 21.4554C68.0941 21.5764 68.2367 21.6671 68.3793 21.7881C68.5219 21.9091 68.693 21.9393 68.8071 21.9393H72.0297C72.1438 21.9393 72.2579 21.9091 72.4005 21.8183C72.5431 21.7276 72.6572 21.6369 72.7712 21.5159C72.8568 21.4252 72.9423 21.3042 72.9994 21.1832C73.0564 21.0622 73.0849 20.9413 73.0849 20.8203V16.5862H73.0564Z" fill="black"/>
<path d="M92.2214 25.5994H84.0649V6.93896H92.2214V8.60237C92.3355 8.42091 92.4781 8.23945 92.6492 8.05798C92.7062 7.96725 92.7918 7.87652 92.9059 7.78579C93.0199 7.69506 93.1055 7.63457 93.1911 7.60433C93.3336 7.5136 93.4477 7.42287 93.5903 7.33213C93.7329 7.2414 93.847 7.18091 93.9896 7.15067C94.1322 7.09018 94.3033 7.05994 94.4459 7.0297C94.5885 6.99945 94.7311 6.96921 94.8737 6.96921H99.7219V12.1409H95.4441C95.0163 12.1409 94.617 12.2014 94.2748 12.2921C93.904 12.3828 93.5618 12.5038 93.3051 12.6853C93.1625 12.7458 93.0199 12.8365 92.9059 12.9575C92.7918 13.0785 92.7062 13.1994 92.5922 13.3204C92.4496 13.4716 92.364 13.6228 92.307 13.8043C92.2499 13.9858 92.2214 14.1672 92.2214 14.3789V25.5994Z" fill="black"/>
<path d="M110.159 13.4109L117.146 6.969H122.279L117.46 11.4451L124.96 25.6294H115.292L111.471 16.889L110.13 18.2802V25.6899L102.031 25.6597V0.254883H110.13V13.4109H110.159Z" fill="black"/>
</svg>
